<?xml version="1.0" encoding="utf-8"?>
<!-- Generator: Adobe Illustrator 25.0.0, SVG Export Plug-In . SVG Version: 6.00 Build 0)  -->
<svg version="1.1" id="Layer_1" xmlns="http://www.w3.org/2000/svg" xmlns:xlink="http://www.w3.org/1999/xlink" x="0px" y="0px"
	 viewBox="0 0 275.9 309.5" style="enable-background:new 0 0 275.9 309.5;" xml:space="preserve">
<style type="text/css">
	.st0{opacity:5.000000e-02;}
	.st1{fill:#FFFFFF;}
</style>
<g id="Layer_2_1_">
	<g id="Layer_1-2">
		<g class="st0">
			<path class="st1" d="M159.5,102.9c-2.8-1.8-6.5-1.1-8.3,1.7c-1.8,2.8-1.1,6.5,1.7,8.3c2.7,1.8,6.4,1.1,8.3-1.6
				C163,108.5,162.3,104.8,159.5,102.9C159.5,102.9,159.5,102.9,159.5,102.9z"/>
			<path class="st1" d="M146.4,123.1c-2.9-1.7-6.5-0.7-8.2,2.2c0,0,0,0,0,0c-5.1,8.9-14.3,25.7-19.2,37.8c-1.3,3.1,0.2,6.6,3.3,7.9
				c3.1,1.3,6.6-0.2,7.8-3.3c4.8-11.9,14.6-29.4,18.5-36.3C150.3,128.5,149.4,124.8,146.4,123.1
				C146.5,123.1,146.5,123.1,146.4,123.1z"/>
			<path class="st1" d="M181.3,81.3c-9.3,13.8-5.6,32.5,8.1,41.8s32.5,5.6,41.8-8.1c9.3-13.8,5.6-32.5-8.1-41.8c0,0,0,0,0,0
				C209.4,63.8,190.7,67.5,181.3,81.3C181.4,81.3,181.3,81.3,181.3,81.3z M216.4,83.1c8.3,5.5,10.5,16.7,5,25c0,0,0,0.1-0.1,0.1l0,0
				c-5.6,8.3-16.8,10.5-25.1,4.9c-8.3-5.6-10.5-16.8-4.9-25.1C196.9,79.7,208.1,77.5,216.4,83.1z"/>
			<path class="st1" d="M70,309.5c0.1-3.3-2.5-6.1-5.8-6.2c-2.1-0.1-4.1,0.9-5.2,2.7l-2.4,3.5L70,309.5z"/>
			<path class="st1" d="M122.5,309.5l5.6-8.3c1.9-2.8,1.1-6.5-1.6-8.4c-2.8-1.9-6.5-1.1-8.4,1.6l0,0l-10.1,15L122.5,309.5z"/>
			<path class="st1" d="M55.8,245.3c-2.7-1.9-6.5-1.1-8.3,1.6c0,0,0,0,0,0l-29.7,44.2c-1.9,2.8-1.1,6.5,1.6,8.4
				c2.8,1.9,6.5,1.1,8.4-1.6l29.7-44.1C59.3,250.9,58.6,247.2,55.8,245.3C55.8,245.3,55.8,245.3,55.8,245.3z"/>
			<path class="st1" d="M9.9,213.6c21-17.6,48.3-26,75.6-23.4c-1.2,5.2-2.1,10.5-2.6,15.9c-0.5,5.6,1.6,11,5.8,14.7
				c-1.4,1.7-2.7,3.4-3.9,5.2c-12.2,18.2-8.1,55.9-7.9,57.5c0.4,3.3,3.3,5.7,6.6,5.3c0.2,0,0.3,0,0.5-0.1l0.5-0.1
				c1.6-0.4,38-10.8,50.3-28.9c1.3-1.9,2.4-3.8,3.5-5.8c4.7,1.9,10,1.6,14.5-0.7c4.7-2.5,9.3-5.3,13.7-8.4
				c10.4,19.9,14,42.7,10.2,64.8h25.2c0.8-1.1,1.6-2.3,2.4-3.4c21.4-31.6,25.5-71.8,11.1-107.1c9.3-10.8,17.9-22.1,25.8-33.9
				c18.2-27.1,29.5-60.8,33.4-100.2c2.2-19.6,1.7-46-0.1-59.7c-0.4-3.3-3.5-5.6-6.8-5.1c-0.2,0-0.5,0.1-0.7,0.1
				c-29.7,7.5-98.6,35.9-135.7,90.9c-7.9,11.8-15.2,24.1-21.7,36.7c-49.8,0-93.8,32-109.1,79.4c-1.1,3.1,0.6,6.5,3.8,7.6
				C6.1,215.4,8.3,215,9.9,213.6z M124.7,253c-6.5,9.7-24.8,17.7-36.5,21.8c-0.6-12.4,0-32.3,6.5-42c1.2-1.8,2.5-3.4,3.9-5
				l29.3,19.7C126.9,249.4,125.9,251.3,124.7,253z M147,242.4c-1.9,0.9-4.1,0.7-5.9-0.5l-43.6-29.4c-1.8-1.1-2.8-3.1-2.7-5.2
				c0.5-5.1,1.4-10.2,2.6-15.2c25.5,5.6,48,20.7,62.7,42.3C155.9,237.3,151.6,240,147,242.4z M194.1,299.4c-1.6,2.3-3.2,4.6-5,6.8
				c2.9-23.7-1.7-47.7-13.1-68.7c10.7-8.7,20.7-18.1,30-28.2C216.5,239.4,212.1,272.8,194.1,299.4L194.1,299.4z M263,13.9
				c1,13.2,1.1,26.4,0.2,39.6l-37-24.9C238.2,22.8,250.5,17.9,263,13.9z M141.2,97.8c16.6-24.6,41.1-45.8,72.8-63l48.1,32.4
				c-4,35.9-14.4,66.6-31,91.2c-16.4,24.4-38.4,50.2-61.3,68.7c-16.4-23.7-41.1-40.3-69.2-46.6C109.1,152.2,124.8,122.2,141.2,97.8z
				 M24.4,185c17.8-26.6,47.1-43.3,79.1-45c-5.9,12.4-10.9,25.3-14.9,38.5c-23.7-2.7-47.7,2.1-68.6,13.7
				C21.3,189.7,22.8,187.3,24.4,185z"/>
		</g>
	</g>
</g>
</svg>
