<?xml version="1.0" encoding="utf-8"?>
<!-- Generator: Adobe Illustrator 25.0.0, SVG Export Plug-In . SVG Version: 6.00 Build 0)  -->
<svg version="1.1" id="Layer_1" xmlns="http://www.w3.org/2000/svg" xmlns:xlink="http://www.w3.org/1999/xlink" x="0px" y="0px"
	 viewBox="0 0 57.8 65.1" style="enable-background:new 0 0 57.8 65.1;" xml:space="preserve">
<style type="text/css">
	.st0{fill:#FFFFFF;}
</style>
<g id="Layer_2_1_">
	<g id="Layer_1-2">
		<path class="st0" d="M31.7,17.9c-0.4,0.5-0.4,1.2,0.1,1.7s1.2,0.4,1.7-0.1c0.4-0.5,0.4-1.2-0.1-1.7C32.9,17.3,32.1,17.4,31.7,17.9
			z"/>
		<path class="st0" d="M30.4,21.4c-0.5-0.4-1.3-0.3-1.6,0.2c0,0,0,0,0,0c-1.6,2.2-3.2,4.6-4.6,7c-0.3,0.6-0.1,1.3,0.5,1.6
			s1.3,0.1,1.6-0.5l0,0c1.3-2.3,2.8-4.5,4.4-6.7C31.1,22.6,31,21.9,30.4,21.4C30.4,21.5,30.4,21.4,30.4,21.4z"/>
		<path class="st0" d="M38.1,14c-2.1,2.5-1.8,6.2,0.7,8.3c2.5,2.1,6.2,1.8,8.3-0.7s1.8-6.2-0.7-8.3c0,0,0,0,0,0
			C43.9,11.2,40.2,11.5,38.1,14C38.1,14,38.1,14,38.1,14z M45.3,20.1L45.3,20.1c-1.3,1.5-3.5,1.7-5,0.4c-1.5-1.3-1.7-3.5-0.4-5
			c1.3-1.5,3.5-1.7,5-0.4C46.4,16.4,46.6,18.6,45.3,20.1C45.3,20.1,45.3,20.1,45.3,20.1z"/>
		<path class="st0" d="M4.5,64.7l6.7-8c0.4-0.5,0.4-1.2-0.1-1.7c-0.5-0.4-1.2-0.4-1.7,0.1l-6.7,8c-0.4,0.5-0.2,1.3,0.3,1.7
			C3.5,65.2,4.1,65.1,4.5,64.7L4.5,64.7z"/>
		<path class="st0" d="M16.3,63.7l6.7-8c0.4-0.5,0.2-1.3-0.3-1.7c-0.5-0.3-1.1-0.3-1.5,0.1l-6.7,8c-0.4,0.5-0.4,1.2,0.1,1.6
			c0,0,0,0,0,0C15.1,64.3,15.9,64.2,16.3,63.7z"/>
		<path class="st0" d="M1.9,53.1c0.5,0.4,1.2,0.4,1.7-0.1l6.7-8c0.4-0.5,0.4-1.2-0.1-1.6c0,0,0,0,0,0c-0.5-0.4-1.2-0.4-1.7,0.1
			l-6.7,8C1.3,52,1.4,52.7,1.9,53.1z"/>
		<path class="st0" d="M57.8,1.1c0-0.3-0.2-0.7-0.4-0.9C57.2,0.1,56.8,0,56.5,0c-6,0.8-20,4.9-28.4,14.8c-1.8,2.1-3.5,4.4-5,6.7
			c-7.4-0.8-14.8,2.1-19.6,7.8C2.1,31,1,32.8,0.1,34.7c-0.3,0.6,0,1.3,0.6,1.6c0.4,0.2,0.8,0.1,1.1-0.1c4.5-3,10-4,15.2-3
			c-0.3,1-0.6,2-0.9,3c-0.2,1.1,0.1,2.2,0.8,3c-0.3,0.3-0.6,0.6-0.9,0.9c-2.8,3.3-2.8,10.7-2.8,11c0,0.7,0.5,1.2,1.2,1.2
			c0,0,0,0,0.1,0h0.1c0.3,0,7.6-1.3,10.4-4.6c0.3-0.3,0.5-0.7,0.8-1.1c0.9,0.5,1.9,0.5,2.8,0.2c1-0.4,1.9-0.8,2.9-1.3
			c2,5,1.8,10.6-0.4,15.5c-0.3,0.6,0,1.3,0.6,1.6c0.4,0.2,0.8,0.1,1.1-0.1c8.1-5.4,11.8-15.5,9.1-24.8c2.1-1.9,4-3.9,5.8-6
			c4.1-4.9,7-11.2,8.6-18.8C57.4,9,57.8,5.1,57.8,1.1z M4.3,32.2c0.3-0.5,0.7-0.9,1-1.3c4-4.8,10.1-7.4,16.4-7.1
			c-1.4,2.3-2.7,4.7-3.7,7.2C13.4,30,8.6,30.4,4.3,32.2L4.3,32.2z M23.4,46.3c-1.5,1.7-5.2,2.9-7.6,3.5c0.1-2.4,0.7-6.3,2.2-8
			c0.3-0.3,0.6-0.6,0.9-0.9l5.3,4.5C23.9,45.6,23.6,46,23.4,46.3z M28,44.7c-0.4,0.1-0.8,0-1.1-0.2L19,37.8
			c-0.3-0.3-0.5-0.7-0.4-1.1c0.2-1,0.5-2,0.8-2.9c2.4,0.8,4.6,2.1,6.6,3.7c1.9,1.6,3.5,3.6,4.7,5.9C29.8,43.9,28.9,44.3,28,44.7z
			 M36,56.8c-0.4,0.4-0.8,0.8-1.2,1.2c1.1-4.6,0.7-9.3-1.1-13.7c2.3-1.5,4.4-3.1,6.5-4.9C41.6,45.6,40,52,36,56.8L36,56.8z
			 M46.2,30.1c-3.9,4.6-8.4,8.7-13.4,12.1c-1.3-2.5-3.1-4.7-5.2-6.5c-2.1-1.8-4.6-3.2-7.2-4.1c2.5-5.5,5.8-10.6,9.7-15.2
			c4.2-4.8,9.6-8.5,15.5-10.7l8.7,7.4C52.9,19.3,50.2,25.1,46.2,30.1z M54.7,10.3L48,4.7c2.4-0.9,4.9-1.6,7.5-2.1
			C55.4,5.2,55.1,7.8,54.7,10.3z"/>
	</g>
</g>
</svg>
